#
#
#

mtllib torus_smooth3.mtl


#
# 
#
g 


#
# _lambert1
#
usemtl _lambert1

v 75.465767 -0.000000 36.264694
v 69.309113 -0.000001 31.791624
v 61.699074 -0.000001 31.791626
v 55.542423 -0.000000 36.264694
v 53.190792 0.000000 43.502274
v 55.542427 0.000000 50.739853
v 61.699078 0.000001 55.212921
v 69.309120 0.000001 55.212921
v 75.465767 0.000000 50.739853
v 77.817398 0.000000 43.502274
v 76.130928 2.530415 35.781425
v 69.563187 2.530415 31.009682
v 61.445007 2.530415 31.009686
v 54.877266 2.530415 35.781429
v 52.368610 2.530415 43.502274
v 54.877266 2.530416 51.223118
v 61.445007 2.530416 55.994862
v 69.563187 2.530416 55.994862
v 76.130928 2.530416 51.223118
v 78.639580 2.530415 43.502274
v 77.872337 4.094298 34.516220
v 70.228340 4.094298 28.962532
v 60.779846 4.094298 28.962536
v 53.135857 4.094298 34.516220
v 50.216110 4.094298 43.502274
v 53.135857 4.094299 52.488327
v 60.779850 4.094299 58.042011
v 70.228348 4.094299 58.042011
v 77.872337 4.094299 52.488327
v 80.792084 4.094298 43.502274
v 80.024841 4.094298 32.952335
v 71.050522 4.094297 26.432116
v 59.957664 4.094297 26.432117
v 50.983353 4.094298 32.952339
v 47.555473 4.094298 43.502274
v 50.983356 4.094299 54.052212
v 59.957668 4.094299 60.572430
v 71.050529 4.094299 60.572426
v 80.024841 4.094299 54.052208
v 83.452721 4.094298 43.502274
v 81.766251 2.530415 31.687126
v 71.715683 2.530415 24.384966
v 59.292507 2.530415 24.384970
v 49.241943 2.530415 31.687130
v 45.402973 2.530416 43.502274
v 49.241947 2.530416 55.317421
v 59.292511 2.530417 62.619576
v 71.715683 2.530417 62.619576
v 81.766251 2.530416 55.317417
v 85.605217 2.530416 43.502274
v 82.431404 -0.000000 31.203861
v 71.969749 -0.000001 23.603025
v 59.038437 -0.000001 23.603027
v 48.576782 -0.000000 31.203865
v 44.580791 0.000000 43.502274
v 48.576790 0.000001 55.800686
v 59.038441 0.000001 63.401520
v 71.969757 0.000001 63.401520
v 82.431404 0.000001 55.800682
v 86.427399 0.000000 43.502274
v 81.766251 -2.530416 31.687126
v 71.715683 -2.530416 24.384966
v 59.292507 -2.530416 24.384970
v 49.241943 -2.530416 31.687130
v 45.402973 -2.530415 43.502274
v 49.241947 -2.530415 55.317421
v 59.292511 -2.530414 62.619576
v 71.715683 -2.530414 62.619576
v 81.766251 -2.530415 55.317417
v 85.605217 -2.530415 43.502274
v 80.024841 -4.094299 32.952335
v 71.050522 -4.094299 26.432116
v 59.957664 -4.094299 26.432117
v 50.983353 -4.094299 32.952339
v 47.555473 -4.094298 43.502274
v 50.983356 -4.094298 54.052212
v 59.957668 -4.094297 60.572430
v 71.050529 -4.094297 60.572426
v 80.024841 -4.094298 54.052208
v 83.452721 -4.094298 43.502274
v 77.872337 -4.094299 34.516220
v 70.228340 -4.094299 28.962532
v 60.779846 -4.094299 28.962534
v 53.135853 -4.094299 34.516220
v 50.216110 -4.094299 43.502274
v 53.135857 -4.094298 52.488327
v 60.779850 -4.094298 58.042015
v 70.228348 -4.094298 58.042011
v 77.872337 -4.094298 52.488327
v 80.792084 -4.094299 43.502274
v 76.130928 -2.530416 35.781425
v 69.563187 -2.530417 31.009682
v 61.445007 -2.530417 31.009686
v 54.877266 -2.530416 35.781429
v 52.368610 -2.530416 43.502274
v 54.877266 -2.530416 51.223118
v 61.445007 -2.530416 55.994862
v 69.563187 -2.530416 55.994862
v 76.130928 -2.530416 51.223118
v 78.639580 -2.530416 43.502274
vn -0.224137 0.560624 0.797160
vn -0.809017 0.000000 0.587785
vn -0.593446 0.679646 0.431164
vn -0.309017 0.000000 0.951057
vn 0.318664 0.535843 0.781873
vn 0.200251 0.000000 0.979745
vn 0.590895 0.644647 0.485049
vn 0.809017 0.000000 0.587785
vn 0.798343 0.602203 -0.000000
vn 1.000000 -0.000000 -0.000000
vn 0.590895 0.644647 -0.485049
vn 0.809017 -0.000000 -0.587785
vn 0.267400 0.501210 -0.822973
vn 0.309017 -0.000000 -0.951057
vn -0.258819 0.597458 -0.758984
vn -0.200251 -0.000000 -0.979745
vn -0.590895 0.644647 -0.485049
vn -0.809017 -0.000000 -0.587785
vn -0.827406 0.560624 -0.033169
vn -1.000000 -0.000000 0.000000
vn -0.098283 0.969340 0.225212
vn -0.192750 0.971203 0.140041
vn 0.103000 0.942816 0.317000
vn 0.253624 0.955768 0.148939
vn 0.309017 0.951057 -0.000000
vn 0.253624 0.955768 -0.148939
vn 0.088009 0.958586 -0.270864
vn -0.117642 0.955768 -0.269570
vn -0.253624 0.955768 -0.148939
vn -0.362831 0.931181 0.035427
vn 0.283131 0.945777 -0.159195
vn 0.128895 0.908854 -0.396699
vn -0.078599 0.967111 -0.241904
vn -0.238896 0.945777 -0.220080
vn -0.282325 0.958754 -0.032928
vn -0.298331 0.929526 0.216750
vn -0.074345 0.925868 0.370461
vn 0.078599 0.967111 0.241904
vn 0.238896 0.945777 0.220080
vn 0.282325 0.958754 0.032928
vn 0.664497 0.541969 -0.514503
vn 0.250000 0.587785 -0.769421
vn -0.196079 0.615328 -0.763495
vn -0.694663 0.541969 -0.472984
vn -0.772290 0.634217 0.036558
vn -0.703062 0.494756 0.510804
vn -0.273419 0.634217 0.723195
vn 0.196079 0.615328 0.763495
vn 0.694663 0.541969 0.472984
vn 0.772290 0.634217 -0.036558
vn 0.309017 -0.000000 -0.951057
vn 0.809017 -0.000000 -0.587785
vn -0.407032 -0.000000 -0.913414
vn -0.809017 -0.000000 -0.587785
vn -1.000000 0.000000 0.000000
vn -0.809017 0.000000 0.587785
vn 0.407033 0.000000 0.913414
vn 0.809017 0.000000 0.587785
vn 1.000000 0.000000 0.000000
vn 0.664497 -0.541969 -0.514503
vn 0.250000 -0.587785 -0.769421
vn -0.196080 -0.615328 -0.763495
vn -0.694663 -0.541969 -0.472984
vn -0.772290 -0.634217 0.036558
vn -0.703062 -0.494756 0.510804
vn -0.273419 -0.634217 0.723195
vn 0.196079 -0.615328 0.763495
vn 0.694663 -0.541969 0.472984
vn 0.772290 -0.634217 -0.036558
vn 0.128895 -0.908854 -0.396699
vn 0.283132 -0.945777 -0.159195
vn -0.078600 -0.967111 -0.241904
vn -0.238896 -0.945777 -0.220080
vn -0.322631 -0.945777 -0.037629
vn -0.298331 -0.929525 0.216751
vn -0.063911 -0.945777 0.318468
vn 0.078600 -0.967111 0.241904
vn 0.238896 -0.945777 0.220080
vn 0.282325 -0.958754 0.032928
vn -0.098283 -0.969340 0.225212
vn -0.192749 -0.971204 0.140041
vn 0.103000 -0.942816 0.317000
vn 0.192749 -0.971204 0.140041
vn 0.292730 -0.955768 0.028582
vn 0.253623 -0.955768 -0.148939
vn 0.103000 -0.942816 -0.317000
vn -0.073624 -0.971204 -0.226591
vn -0.269656 -0.942816 -0.195917
vn -0.362831 -0.931181 0.035427
vn -0.593446 -0.679646 0.431164
vn -0.224137 -0.560624 0.797160
vn 0.318664 -0.535843 0.781873
vn 0.593446 -0.679646 0.431164
vn 0.827406 -0.560624 -0.033169
vn 0.590895 -0.644647 -0.485049
vn 0.267400 -0.501210 -0.822973
vn -0.277798 -0.636303 -0.719685
vn -0.654509 -0.587785 -0.475528
vn -0.827406 -0.560624 -0.033169
vt 0.100000 0.900000
vt 0.000000 1.000000
vt 0.000000 0.900000
vt 0.100000 1.000000
vt 0.200000 0.900000
vt 0.200000 1.000000
vt 0.300000 0.900000
vt 0.300000 1.000000
vt 0.400000 0.900000
vt 0.400000 1.000000
vt 0.500000 0.900000
vt 0.500000 1.000000
vt 0.600000 0.900000
vt 0.600000 1.000000
vt 0.700000 0.900000
vt 0.700000 1.000000
vt 0.800000 0.900000
vt 0.800000 1.000000
vt 0.900000 0.900000
vt 0.900000 1.000000
vt 1.000000 0.900000
vt 1.000000 1.000000
vt 0.100000 0.800000
vt 0.000000 0.800000
vt 0.200000 0.800000
vt 0.300000 0.800000
vt 0.400000 0.800000
vt 0.500000 0.800000
vt 0.600000 0.800000
vt 0.700000 0.800000
vt 0.800000 0.800000
vt 0.900000 0.800000
vt 1.000000 0.800000
vt 0.000000 0.700000
vt 0.100000 0.700000
vt 0.200000 0.700000
vt 0.300000 0.700000
vt 0.400000 0.700000
vt 0.500000 0.700000
vt 0.600000 0.700000
vt 0.700000 0.700000
vt 0.800000 0.700000
vt 0.900000 0.700000
vt 1.000000 0.700000
vt 0.000000 0.600000
vt 0.100000 0.600000
vt 0.200000 0.600000
vt 0.300000 0.600000
vt 0.400000 0.600000
vt 0.500000 0.600000
vt 0.600000 0.600000
vt 0.700000 0.600000
vt 0.800000 0.600000
vt 0.900000 0.600000
vt 1.000000 0.600000
vt 0.100000 0.500000
vt 0.000000 0.500000
vt 0.200000 0.500000
vt 0.300000 0.500000
vt 0.400000 0.500000
vt 0.500000 0.500000
vt 0.600000 0.500000
vt 0.700000 0.500000
vt 0.800000 0.500000
vt 0.900000 0.500000
vt 1.000000 0.500000
vt 0.000000 0.400000
vt 0.100000 0.400000
vt 0.200000 0.400000
vt 0.300000 0.400000
vt 0.400000 0.400000
vt 0.500000 0.400000
vt 0.600000 0.400000
vt 0.700000 0.400000
vt 0.800000 0.400000
vt 0.900000 0.400000
vt 1.000000 0.400000
vt 0.100000 0.300000
vt 0.000000 0.300000
vt 0.200000 0.300000
vt 0.300000 0.300000
vt 0.400000 0.300000
vt 0.500000 0.300000
vt 0.600000 0.300000
vt 0.700000 0.300000
vt 0.800000 0.300000
vt 0.900000 0.300000
vt 1.000000 0.300000
vt 0.100000 0.200000
vt 0.000000 0.200000
vt 0.200000 0.200000
vt 0.300000 0.200000
vt 0.400000 0.200000
vt 0.500000 0.200000
vt 0.600000 0.200000
vt 0.700000 0.200000
vt 0.800000 0.200000
vt 0.900000 0.200000
vt 1.000000 0.200000
vt 0.000000 0.100000
vt 0.100000 0.100000
vt 0.200000 0.100000
vt 0.300000 0.100000
vt 0.400000 0.100000
vt 0.500000 0.100000
vt 0.600000 0.100000
vt 0.700000 0.100000
vt 0.800000 0.100000
vt 0.900000 0.100000
vt 1.000000 0.100000
vt 0.000000 -0.000000
vt 0.100000 -0.000000
vt 0.200000 -0.000000
vt 0.300000 -0.000000
vt 0.400000 -0.000000
vt 0.500000 -0.000000
vt 0.600000 -0.000000
vt 0.700000 -0.000000
vt 0.800000 -0.000000
vt 0.900000 -0.000000
vt 1.000000 -0.000000
f 12/1/1 1/2/2 11/3/3
f 1/2/2 12/1/1 2/4/4
f 12/1/1 13/5/5 3/6/6
f 12/1/1 3/6/6 2/4/4
f 13/5/5 14/7/7 4/8/8
f 13/5/5 4/8/8 3/6/6
f 15/9/9 4/8/8 14/7/7
f 4/8/8 15/9/9 5/10/10
f 15/9/9 16/11/11 6/12/12
f 15/9/9 6/12/12 5/10/10
f 17/13/13 6/12/12 16/11/11
f 6/12/12 17/13/13 7/14/14
f 17/13/13 18/15/15 8/16/16
f 17/13/13 8/16/16 7/14/14
f 18/15/15 19/17/17 9/18/18
f 18/15/15 9/18/18 8/16/16
f 20/19/19 9/18/18 19/17/17
f 9/18/18 20/19/19 10/20/20
f 20/19/19 11/21/3 1/22/2
f 20/19/19 1/22/2 10/20/20
f 11/3/3 22/23/21 12/1/1
f 22/23/21 11/3/3 21/24/22
f 23/25/23 12/1/1 22/23/21
f 12/1/1 23/25/23 13/5/5
f 23/25/23 24/26/24 14/7/7
f 14/7/7 13/5/5 23/25/23
f 24/26/24 15/9/9 14/7/7
f 15/9/9 24/26/24 25/27/25
f 26/28/26 15/9/9 25/27/25
f 15/9/9 26/28/26 16/11/11
f 27/29/27 16/11/11 26/28/26
f 16/11/11 27/29/27 17/13/13
f 18/15/15 17/13/13 27/29/27
f 18/15/15 27/29/27 28/30/28
f 28/30/28 29/31/29 19/17/17
f 28/30/28 19/17/17 18/15/15
f 29/31/29 30/32/30 20/19/19
f 29/31/29 20/19/19 19/17/17
f 30/32/30 21/33/22 11/21/3
f 11/21/3 20/19/19 30/32/30
f 31/34/31 22/23/21 21/24/22
f 22/23/21 31/34/31 32/35/32
f 33/36/33 22/23/21 32/35/32
f 22/23/21 33/36/33 23/25/23
f 34/37/34 23/25/23 33/36/33
f 23/25/23 34/37/34 24/26/24
f 24/26/24 35/38/35 25/27/25
f 35/38/35 24/26/24 34/37/34
f 35/38/35 36/39/36 26/28/26
f 35/38/35 26/28/26 25/27/25
f 36/39/36 37/40/37 27/29/27
f 36/39/36 27/29/27 26/28/26
f 27/29/27 38/41/38 28/30/28
f 38/41/38 27/29/27 37/40/37
f 39/42/39 28/30/28 38/41/38
f 28/30/28 39/42/39 29/31/29
f 40/43/40 29/31/29 39/42/39
f 29/31/29 40/43/40 30/32/30
f 21/33/22 30/32/30 40/43/40
f 21/33/22 40/43/40 31/44/31
f 41/45/41 32/35/32 31/34/31
f 32/35/32 41/45/41 42/46/42
f 43/47/43 32/35/32 42/46/42
f 32/35/32 43/47/43 33/36/33
f 43/47/43 44/48/44 34/37/34
f 34/37/34 33/36/33 43/47/43
f 44/48/44 35/38/35 34/37/34
f 35/38/35 44/48/44 45/49/45
f 45/49/45 46/50/46 36/39/36
f 45/49/45 36/39/36 35/38/35
f 47/51/47 36/39/36 46/50/46
f 36/39/36 47/51/47 37/40/37
f 37/40/37 48/52/48 38/41/38
f 48/52/48 37/40/37 47/51/47
f 48/52/48 49/53/49 39/42/39
f 48/52/48 39/42/39 38/41/38
f 49/53/49 50/54/50 40/43/40
f 49/53/49 40/43/40 39/42/39
f 50/54/50 41/55/41 31/44/31
f 31/44/31 40/43/40 50/54/50
f 41/45/41 52/56/51 42/46/42
f 52/56/51 41/45/41 51/57/52
f 43/47/43 42/46/42 52/56/51
f 43/47/43 52/56/51 53/58/53
f 44/48/44 43/47/43 53/58/53
f 44/48/44 53/58/53 54/59/54
f 44/48/44 55/60/55 45/49/45
f 55/60/55 44/48/44 54/59/54
f 46/50/46 45/49/45 55/60/55
f 46/50/46 55/60/55 56/61/56
f 46/50/46 57/62/4 47/51/47
f 57/62/4 46/50/46 56/61/56
f 48/52/48 47/51/47 57/62/4
f 48/52/48 57/62/4 58/63/57
f 49/53/49 48/52/48 58/63/57
f 49/53/49 58/63/57 59/64/58
f 49/53/49 60/65/59 50/54/50
f 60/65/59 49/53/49 59/64/58
f 41/55/41 50/54/50 60/65/59
f 41/55/41 60/65/59 51/66/52
f 52/56/51 51/57/52 61/67/60
f 52/56/51 61/67/60 62/68/61
f 52/56/51 63/69/62 53/58/53
f 63/69/62 52/56/51 62/68/61
f 53/58/53 64/70/63 54/59/54
f 64/70/63 53/58/53 63/69/62
f 55/60/55 54/59/54 64/70/63
f 55/60/55 64/70/63 65/71/64
f 55/60/55 66/72/65 56/61/56
f 66/72/65 55/60/55 65/71/64
f 57/62/4 56/61/56 66/72/65
f 57/62/4 66/72/65 67/73/66
f 57/62/4 68/74/67 58/63/57
f 68/74/67 57/62/4 67/73/66
f 58/63/57 69/75/68 59/64/58
f 69/75/68 58/63/57 68/74/67
f 60/65/59 59/64/58 69/75/68
f 60/65/59 69/75/68 70/76/69
f 60/65/59 61/77/60 51/66/52
f 61/77/60 60/65/59 70/76/69
f 72/78/70 61/67/60 71/79/71
f 61/67/60 72/78/70 62/68/61
f 63/69/62 62/68/61 72/78/70
f 63/69/62 72/78/70 73/80/72
f 63/69/62 74/81/73 64/70/63
f 74/81/73 63/69/62 73/80/72
f 75/82/74 64/70/63 74/81/73
f 64/70/63 75/82/74 65/71/64
f 76/83/75 65/71/64 75/82/74
f 65/71/64 76/83/75 66/72/65
f 67/73/66 76/83/75 77/84/76
f 76/83/75 67/73/66 66/72/65
f 68/74/67 67/73/66 77/84/76
f 68/74/67 77/84/76 78/85/77
f 79/86/78 68/74/67 78/85/77
f 68/74/67 79/86/78 69/75/68
f 80/87/79 69/75/68 79/86/78
f 69/75/68 80/87/79 70/76/69
f 70/76/69 71/88/71 61/77/60
f 71/88/71 70/76/69 80/87/79
f 82/89/80 71/79/71 81/90/81
f 71/79/71 82/89/80 72/78/70
f 73/80/72 72/78/70 82/89/80
f 73/80/72 82/89/80 83/91/82
f 83/91/82 74/81/73 73/80/72
f 74/81/73 83/91/82 84/92/83
f 75/82/74 74/81/73 84/92/83
f 75/82/74 84/92/83 85/93/84
f 85/93/84 86/94/85 76/83/75
f 76/83/75 75/82/74 85/93/84
f 77/84/76 86/94/85 87/95/86
f 86/94/85 77/84/76 76/83/75
f 78/85/77 77/84/76 87/95/86
f 78/85/77 87/95/86 88/96/87
f 88/96/87 89/97/88 79/86/78
f 79/86/78 78/85/77 88/96/87
f 80/87/79 89/97/88 90/98/89
f 89/97/88 80/87/79 79/86/78
f 80/87/79 81/99/81 71/88/71
f 81/99/81 80/87/79 90/98/89
f 91/100/90 92/101/91 82/89/80
f 82/89/80 81/90/81 91/100/90
f 83/91/82 82/89/80 92/101/91
f 83/91/82 92/101/91 93/102/92
f 83/91/82 94/103/93 84/92/83
f 94/103/93 83/91/82 93/102/92
f 85/93/84 84/92/83 94/103/93
f 85/93/84 94/103/93 95/104/94
f 95/104/94 96/105/95 86/94/85
f 86/94/85 85/93/84 95/104/94
f 87/95/86 96/105/95 97/106/96
f 96/105/95 87/95/86 86/94/85
f 87/95/86 98/107/97 88/96/87
f 98/107/97 87/95/86 97/106/96
f 98/107/97 99/108/98 89/97/88
f 89/97/88 88/96/87 98/107/97
f 100/109/99 89/97/88 99/108/98
f 89/97/88 100/109/99 90/98/89
f 90/98/89 91/110/90 81/99/81
f 91/110/90 90/98/89 100/109/99
f 1/111/2 2/112/4 92/101/91
f 92/101/91 91/100/90 1/111/2
f 3/113/6 92/101/91 2/112/4
f 92/101/91 3/113/6 93/102/92
f 4/114/8 93/102/92 3/113/6
f 93/102/92 4/114/8 94/103/93
f 4/114/8 5/115/10 95/104/94
f 4/114/8 95/104/94 94/103/93
f 6/116/12 95/104/94 5/115/10
f 95/104/94 6/116/12 96/105/95
f 6/116/12 7/117/14 97/106/96
f 97/106/96 96/105/95 6/116/12
f 8/118/16 97/106/96 7/117/14
f 97/106/96 8/118/16 98/107/97
f 9/119/18 98/107/97 8/118/16
f 98/107/97 9/119/18 99/108/98
f 9/119/18 10/120/20 100/109/99
f 9/119/18 100/109/99 99/108/98
f 1/121/2 100/109/99 10/120/20
f 100/109/99 1/121/2 91/110/90
